<svg version="1" xmlns="http://www.w3.org/2000/svg" width="682.667" height="682.667" viewBox="0 0 512.000000 512.000000"><path d="M236.9 73.4c-.2.3-4 .7-8.4 1.1-10.5.8-15.4 1.3-18.5 1.9-1.4.3-4.1.7-6 1-6.8 1-24.1 4.7-26.5 5.6-1.4.5-2.5.8-2.5.5 0-.2-1.8.2-3.9 1-2.2.7-4.2 1.1-4.5.8-.3-.4-.6 0-.6.7s-.3 1.1-.6.7c-.4-.3-2.2 0-4 .8-1.9.8-3.4 1.2-3.4.9 0-.3-1 .1-2.2.8-1.3.6-2.7 1.3-3.3 1.4-2.6.6-15.2 5.7-16.4 6.7-.8.7-1.6 1-1.8.8-.4-.4-6.5 2-7.3 2.8-.3.3-3.2 1.9-6.5 3.4-3.3 1.6-7.1 3.6-8.5 4.5-1.4.9-2.7 1.7-3 1.7-1 .2-10.5 6.1-14.7 9.2-2.4 1.8-4.7 3.3-5.2 3.3s-1.1.3-1.3.7c-.2.5-3.5 3.4-7.5 6.6-8.2 6.7-16.2 14.5-22.4 21.8-2.4 2.9-5.2 5.9-6.1 6.7-.9.9-1.5 1.9-1.2 2.4.3.4-.2 1.1-1 1.4-.9.3-1.6 1-1.6 1.5 0 .4-1.3 2.7-2.9 5.1-5.8 8.6-16 29.8-14.4 29.8.3 0 .1.6-.5 1.2-.8 1.1-2.4 6.5-2.3 8.3 0 .2-.5 1.9-1 3.7-3.1 10.4-3.3 39.1-.3 49 .3.9.7 2.6.9 3.7.3 1.2.7 2.9.9 4 2.5 11 12.9 31.3 22.6 44.1 9.1 12.1 15.6 19.1 25.6 27.6 6.5 5.6 23.9 18.4 24.9 18.4.2 0 2.4 1.3 4.8 3 2.5 1.6 4.8 3 5.1 3 .4 0 2.4 1.1 4.6 2.5 2.2 1.4 4.6 2.5 5.5 2.5.8 0 1.5.4 1.5.9 0 .4 2 1.6 4.5 2.5 4 1.6 4.5 2.1 4.1 4.4-.3 1.5-.7 4.5-1.1 6.7-.3 2.2-1.1 5.8-1.7 8-.6 2.2-1.2 4.5-1.4 5.2-.6 3.4-6.5 20.2-8.9 25.8-5.8 13.3-11 23.4-19.3 37.8C93.9 470.6 89 479 88.5 480c-.6 1-1.7 2.5-2.4 3.4-.7.9-1 1.6-.5 1.6.4 0-.1.6-1.2 1.4-3.3 2.5-.9 2.6 2.7.2 1.8-1.3 8.6-5.8 14.9-10 15.7-10.4 15.8-10.4 22-15 26.2-19.4 48-40.2 62.8-60 3-3.9 5.7-7 6-6.9.4 0 2.3.4 4.2.7 1.9.3 4.4.7 5.5.9 15.7 3.1 28.9 4.1 53.5 4.1 18.8-.1 39.6-1 41-1.9.4-.2 2.9-.7 5.7-1 2.7-.3 6-.8 7.4-1.1 1.3-.3 3.5-.7 4.9-1 1.4-.2 5-1 8-1.6 3-.6 6.5-1.2 7.7-1.3 1.2-.2 2.7-.6 3.3-1 .5-.3 2.3-.8 3.8-1.1 7.3-1.3 33.9-11 47.9-17.5 7.5-3.5 24.5-12.9 25.3-13.9.3-.4 1.6-1.3 2.9-2 1.4-.7 3-1.7 3.5-2.1.6-.5 4.3-3.2 8.1-6.1 9.3-6.9 11.6-9 20.5-17.8 7-7 21-23.9 21-25.5 0-.3 1.3-2.5 2.9-4.8 2.5-3.7 8.6-15.9 8.9-18 .1-.4.9-2.1 1.7-3.7.9-1.7 1.3-3 .9-3s-.2-.6.4-1.3c.6-.7 1.3-2.4 1.6-3.7.3-1.4.9-4 1.5-5.8.5-1.8 1.3-5.6 1.6-8.5.3-2.8.9-6.6 1.3-8.2.8-3.5.7-15.5-.1-23.5-4-36.9-25.6-71.9-61.2-99.1-7.5-5.7-19-13.3-24.5-16.1-1.4-.7-2.7-1.5-3-1.9-.5-.6-19.2-9.6-24.7-12-1.3-.5-3.3-1.4-4.6-2-1.3-.5-2.9-1.1-3.7-1.2-.8-.2-1.9-.5-2.5-.8-2.4-1.4-17-6-19.7-6.2-1-.1-1.8-.4-1.8-.7 0-.4-.6-.7-1.2-.8-.7 0-5.1-1.1-9.8-2.2-4.7-1.2-9.4-2.3-10.5-2.5-4.1-.7-21.1-3.5-24.5-4-1.9-.3-6.2-.8-9.5-1.1-7.4-.7-49.1-1.5-49.6-1z"/></svg>